{
  "accessors": [
    {
      "bufferView": 2,
      "componentType": 5126,
      "count": 532,
      "max": [
        174.6658935546875,
        113.9822006225586,
        84.0
      ],
      "min": [
        0.0,
        0.0,
        82.95999908447266
      ],
      "type": "VEC3"
    },
    {
      "bufferView": 2,
      "byteOffset": 6384,
      "componentType": 5126,
      "count": 532,
      "max": [
        0.9998919367790222,
        0.9995430111885071,
        1.0
      ],
      "min": [
        -0.9987530708312988,
        -1.0,
        0.0
      ],
      "type": "VEC3"
    },
    {
      "bufferView": 1,
      "componentType": 5126,
      "count": 532,
      "max": [
        1.3436216115951538,
        0.0029269780497998
      ],
      "min": [
        -8.816834449768066,
        -3.3772828578948975
      ],
      "type": "VEC2"
    },
    {
      "bufferView": 0,
      "componentType": 5125,
      "count": 1134,
      "type": "SCALAR"
    },
    {
      "bufferView": 2,
      "byteOffset": 12768,
      "componentType": 5126,
      "count": 76,
      "max": [
        174.6658935546875,
        113.9822006225586,
        0.0
      ],
      "min": [
        0.0,
        0.0,
        0.0
      ],
      "type": "VEC3"
    },
    {
      "bufferView": 2,
      "byteOffset": 13680,
      "componentType": 5126,
      "count": 76,
      "max": [
        0.0,
        0.0,
        -1.0
      ],
      "min": [
        0.0,
        0.0,
        -1.0
      ],
      "type": "VEC3"
    },
    {
      "bufferView": 1,
      "byteOffset": 4256,
      "componentType": 5126,
      "count": 76,
      "max": [
        0.0,
        4487.48828125
      ],
      "min": [
        -6876.6103515625,
        0.0
      ],
      "type": "VEC2"
    },
    {
      "bufferView": 0,
      "byteOffset": 4536,
      "componentType": 5125,
      "count": 222,
      "type": "SCALAR"
    },
    {
      "bufferView": 2,
      "byteOffset": 14592,
      "componentType": 5126,
      "count": 160,
      "max": [
        171.8083953857422,
        85.47380065917969,
        84.0
      ],
      "min": [
        25.796899795532227,
        0.0,
        0.0
      ],
      "type": "VEC3"
    },
    {
      "bufferView": 2,
      "byteOffset": 16512,
      "componentType": 5126,
      "count": 160,
      "max": [
        0.9987531900405884,
        0.7208197116851807,
        0.0
      ],
      "min": [
        -0.9922120571136475,
        -0.9995428919792175,
        0.0
      ],
      "type": "VEC3"
    },
    {
      "bufferView": 1,
      "byteOffset": 4864,
      "componentType": 5126,
      "count": 160,
      "max": [
        4.601042747497559,
        1.0
      ],
      "min": [
        -1.3877787807814457e-17,
        -0.00032846195972524583
      ],
      "type": "VEC2"
    },
    {
      "bufferView": 0,
      "byteOffset": 5424,
      "componentType": 5125,
      "count": 240,
      "type": "SCALAR"
    },
    {
      "bufferView": 2,
      "byteOffset": 18432,
      "componentType": 5126,
      "count": 8,
      "max": [
        174.6658935546875,
        97.88189697265625,
        84.0
      ],
      "min": [
        0.0,
        0.0,
        0.0
      ],
      "type": "VEC3"
    },
    {
      "bufferView": 2,
      "byteOffset": 18528,
      "componentType": 5126,
      "count": 8,
      "max": [
        0.993626594543457,
        -0.11272197216749191,
        0.0
      ],
      "min": [
        -0.11009575426578522,
        -0.9939209818840027,
        0.0
      ],
      "type": "VEC3"
    },
    {
      "bufferView": 1,
      "byteOffset": 6144,
      "componentType": 5126,
      "count": 8,
      "max": [
        1.0,
        1.0
      ],
      "min": [
        -3.6257004737854004,
        0.0
      ],
      "type": "VEC2"
    },
    {
      "bufferView": 0,
      "byteOffset": 6384,
      "componentType": 5125,
      "count": 12,
      "type": "SCALAR"
    },
    {
      "bufferView": 2,
      "byteOffset": 18624,
      "componentType": 5126,
      "count": 136,
      "max": [
        174.6658935546875,
        113.9822006225586,
        84.0
      ],
      "min": [
        0.0,
        2.8575000762939453,
        0.0
      ],
      "type": "VEC3"
    },
    {
      "bufferView": 2,
      "byteOffset": 20256,
      "componentType": 5126,
      "count": 136,
      "max": [
        0.9942939877510071,
        1.0,
        0.0
      ],
      "min": [
        -0.999891996383667,
        -0.6585047245025635,
        0.0
      ],
      "type": "VEC3"
    },
    {
      "bufferView": 1,
      "byteOffset": 6208,
      "componentType": 5126,
      "count": 136,
      "max": [
        2.3253819942474365,
        1.002444863319397
      ],
      "min": [
        -1.9865440130233765,
        -0.00216972129419446
      ],
      "type": "VEC2"
    },
    {
      "bufferView": 0,
      "byteOffset": 6432,
      "componentType": 5125,
      "count": 204,
      "type": "SCALAR"
    }
  ],
  "asset": {
    "extras": {
      "author": "Arif (https://sketchfab.com/ar712f)",
      "license": "CC-BY-4.0 (http://creativecommons.org/licenses/by/4.0/)",
      "source": "https://sketchfab.com/3d-models/building-d2832d28ed274280ac71bab9c8544e5a",
      "title": "Building"
    },
    "generator": "Sketchfab-12.66.0",
    "version": "2.0"
  },
  "bufferViews": [
    {
      "buffer": 0,
      "byteLength": 7248,
      "name": "floatBufferViews",
      "target": 34963
    },
    {
      "buffer": 0,
      "byteLength": 7296,
      "byteOffset": 7248,
      "byteStride": 8,
      "name": "floatBufferViews",
      "target": 34962
    },
    {
      "buffer": 0,
      "byteLength": 21888,
      "byteOffset": 14544,
      "byteStride": 12,
      "name": "floatBufferViews",
      "target": 34962
    }
  ],
  "buffers": [
    {
      "byteLength": 36432,
      "uri": "scene.bin"
    }
  ],
  "images": [
    {
      "uri": "textures/material_baseColor.jpeg"
    },
    {
      "uri": "textures/material_1_baseColor.jpeg"
    },
    {
      "uri": "textures/material_2_baseColor.jpeg"
    },
    {
      "uri": "textures/Roof2_baseColor.jpeg"
    }
  ],
  "materials": [
    {
      "doubleSided": true,
      "name": "material",
      "pbrMetallicRoughness": {
        "baseColorTexture": {
          "index": 0
        },
        "metallicFactor": 0.0,
        "roughnessFactor": 0.6
      }
    },
    {
      "doubleSided": true,
      "name": "material_1",
      "pbrMetallicRoughness": {
        "baseColorTexture": {
          "index": 1
        },
        "metallicFactor": 0.0,
        "roughnessFactor": 0.6
      }
    },
    {
      "doubleSided": true,
      "name": "material_2",
      "pbrMetallicRoughness": {
        "baseColorTexture": {
          "index": 2
        },
        "metallicFactor": 0.0,
        "roughnessFactor": 0.6
      }
    },
    {
      "doubleSided": true,
      "name": "FrontCol",
      "pbrMetallicRoughness": {
        "metallicFactor": 0.0,
        "roughnessFactor": 0.6
      }
    },
    {
      "doubleSided": true,
      "name": "Roof2",
      "pbrMetallicRoughness": {
        "baseColorTexture": {
          "index": 3
        },
        "metallicFactor": 0.0,
        "roughnessFactor": 0.6
      }
    }
  ],
  "meshes": [
    {
      "name": "Object_0",
      "primitives": [
        {
          "attributes": {
            "NORMAL": 1,
            "POSITION": 0,
            "TEXCOORD_0": 2
          },
          "indices": 3,
          "material": 4,
          "mode": 4
        }
      ]
    },
    {
      "name": "Object_1",
      "primitives": [
        {
          "attributes": {
            "NORMAL": 5,
            "POSITION": 4,
            "TEXCOORD_0": 6
          },
          "indices": 7,
          "material": 3,
          "mode": 4
        }
      ]
    },
    {
      "name": "Object_2",
      "primitives": [
        {
          "attributes": {
            "NORMAL": 9,
            "POSITION": 8,
            "TEXCOORD_0": 10
          },
          "indices": 11,
          "material": 2,
          "mode": 4
        }
      ]
    },
    {
      "name": "Object_3",
      "primitives": [
        {
          "attributes": {
            "NORMAL": 13,
            "POSITION": 12,
            "TEXCOORD_0": 14
          },
          "indices": 15,
          "material": 1,
          "mode": 4
        }
      ]
    },
    {
      "name": "Object_4",
      "primitives": [
        {
          "attributes": {
            "NORMAL": 17,
            "POSITION": 16,
            "TEXCOORD_0": 18
          },
          "indices": 19,
          "material": 0,
          "mode": 4
        }
      ]
    }
  ],
  "nodes": [
    {
      "children": [
        1
      ],
      "matrix": [
        1.0,
        0.0,
        0.0,
        0.0,
        0.0,
        2.220446049250313e-16,
        -1.0,
        0.0,
        0.0,
        1.0,
        2.220446049250313e-16,
        0.0,
        0.0,
        0.0,
        0.0,
        1.0
      ],
      "name": "Sketchfab_model"
    },
    {
      "children": [
        2,
        3,
        4,
        5,
        6
      ],
      "name": "Geode"
    },
    {
      "mesh": 0,
      "name": "Object_2"
    },
    {
      "mesh": 1,
      "name": "Object_3"
    },
    {
      "mesh": 2,
      "name": "Object_4"
    },
    {
      "mesh": 3,
      "name": "Object_5"
    },
    {
      "mesh": 4,
      "name": "Object_6"
    }
  ],
  "samplers": [
    {
      "magFilter": 9729,
      "minFilter": 9987,
      "wrapS": 10497,
      "wrapT": 10497
    }
  ],
  "scene": 0,
  "scenes": [
    {
      "name": "Sketchfab_Scene",
      "nodes": [
        0
      ]
    }
  ],
  "textures": [
    {
      "sampler": 0,
      "source": 0
    },
    {
      "sampler": 0,
      "source": 1
    },
    {
      "sampler": 0,
      "source": 2
    },
    {
      "sampler": 0,
      "source": 3
    }
  ]
}
